<svg xmlns="http://www.w3.org/2000/svg" fill="#ccc" viewBox="0 0 64 64"><g id="Layer_10" data-name="Layer 10"><path d="M32,15.27A16.76,16.76,0,0,0,15.27,32c.92,22.19,32.54,22.18,33.46,0A16.76,16.76,0,0,0,32,15.27Zm0,30.46A13.75,13.75,0,0,1,18.27,32C19,13.79,45,13.79,45.73,32A13.75,13.75,0,0,1,32,45.73Z"/><path d="M32,20.27a1.5,1.5,0,0,0-1.5,1.5V42.23a1.5,1.5,0,0,0,1.5,1.5C47.56,43.09,47.56,20.91,32,20.27Zm1.5,20.32V23.41C43.08,25.24,43.07,38.76,33.5,40.59Z"/><path d="M32,12.57a1.5,1.5,0,0,0,1.5-1.5V6a1.5,1.5,0,0,0-3,0v5A1.5,1.5,0,0,0,32,12.57Z"/><path d="M46.8,18.7a1.51,1.51,0,0,0,1.06-.44l3.56-3.55a1.51,1.51,0,1,0-2.13-2.13l-3.55,3.56A1.51,1.51,0,0,0,46.8,18.7Z"/><path d="M58,30.5h-5a1.5,1.5,0,0,0,0,3h5A1.5,1.5,0,0,0,58,30.5Z"/><path d="M47.86,45.74a1.5,1.5,0,0,0-2.12,2.12l3.55,3.56a1.5,1.5,0,0,0,2.12-2.13Z"/><path d="M32,51.43a1.5,1.5,0,0,0-1.5,1.5v5a1.5,1.5,0,0,0,3,0v-5A1.5,1.5,0,0,0,32,51.43Z"/><path d="M16.14,45.74l-3.56,3.55a1.51,1.51,0,0,0,2.13,2.13l3.55-3.56A1.5,1.5,0,0,0,16.14,45.74Z"/><path d="M11.07,30.5H6a1.5,1.5,0,1,0,0,3h5A1.5,1.5,0,0,0,11.07,30.5Z"/><path d="M16.14,18.26a1.5,1.5,0,0,0,2.12-2.12l-3.55-3.56a1.51,1.51,0,1,0-2.13,2.13Z"/></g></svg>