<svg width="20" height="19" viewBox="0 0 20 19" fill="none" xmlns="http://www.w3.org/2000/svg">
<path d="M17.8719 16.1433L13.6227 12.1062C14.6441 10.9658 15.2035 9.52668 15.2035 8.0249C15.2035 4.54627 12.2246 1.71631 8.56289 1.71631C4.90117 1.71631 1.92226 4.54627 1.92226 8.0249C1.92226 11.5035 4.90117 14.3335 8.56289 14.3335C10.0234 14.3335 11.4477 13.8715 12.6035 13.0276L16.8777 17.0878C17.0105 17.2143 17.1871 17.2837 17.375 17.2837C17.5625 17.2837 17.739 17.2143 17.8718 17.0878C18.1461 16.8272 18.1461 16.4035 17.8719 16.1433ZM8.56289 2.97803C11.4922 2.97803 13.8754 5.24207 13.8754 8.0249C13.8754 10.8077 11.4922 13.0718 8.56289 13.0718C5.63359 13.0718 3.25039 10.8077 3.25039 8.0249C3.25039 5.24207 5.63359 2.97803 8.56289 2.97803Z" fill="white"/>
</svg>
