<svg width="25" height="21" viewBox="0 0 25 21" fill="none" xmlns="http://www.w3.org/2000/svg">
<path d="M13.2812 15.75H7.03125V5.25H13.2812C13.75 5.25 14.0625 4.9875 14.0625 4.59375C14.0625 4.2 13.75 3.9375 13.2812 3.9375H6.25C5.78125 3.9375 5.46875 4.2 5.46875 4.59375V16.4062C5.46875 16.8 5.78125 17.0625 6.25 17.0625H13.2812C13.75 17.0625 14.0625 16.8 14.0625 16.4062C14.0625 16.0125 13.75 15.75 13.2812 15.75Z" fill="white"/>
<path d="M19.2969 10.0406L16.1719 7.41563C15.8594 7.15313 15.3906 7.15313 15.0781 7.41563C14.7656 7.67813 14.7656 8.07187 15.0781 8.33437L16.875 9.84375H8.59375C8.125 9.84375 7.8125 10.1063 7.8125 10.5C7.8125 10.8937 8.125 11.1562 8.59375 11.1562H16.875L15.0781 12.6656C14.7656 12.9281 14.7656 13.3219 15.0781 13.5844C15.2344 13.7156 15.4688 13.7812 15.625 13.7812C15.7812 13.7812 16.0156 13.7156 16.1719 13.5844L19.2969 10.9594C19.6094 10.6969 19.6094 10.3031 19.2969 10.0406Z" fill="white"/>
</svg>
